<?xml version="1.0" encoding="UTF-8"?>
<svg id="Layer_1" data-name="Layer 1" xmlns="http://www.w3.org/2000/svg" viewBox="0 0 2639.47 817.02">
  <defs>
    <style>
      .cls-1 {
        fill: #f79121;
      }

      .cls-2 {
        fill: #194791;
      }
    </style>
  </defs>
  <path class="cls-1" d="M1492,359.4c0,4.32-.15,8.65-.31,13.12,0,2.62-.15,5.4-.46,8.18,0,.62,0,1.24-.15,1.85-.15,2.93-.31,6.02-.77,8.95-.77,10.34-2.16,20.53-4.01,30.57-1.85,10.34-4.17,20.53-7.1,30.57-3.09,11.27-6.64,22.39-10.81,33.19-2.32,5.87-4.63,11.73-7.26,17.45-1.54,3.55-3.24,7.1-5.09,10.5-1.7,3.4-3.55,6.95-5.4,10.34-3.55,6.79-7.41,13.43-11.58,19.76-.93,1.7-2.01,3.24-3.09,4.94-3.24,4.63-6.48,9.26-10.03,13.74-1.24,1.7-2.47,3.4-3.71,4.94-.46.62-.93,1.23-1.54,1.85-11.89,14.51-24.86,27.48-39.37,38.6-2.16,1.7-4.32,3.4-6.64,4.94-10.5,7.72-21.77,14.2-33.66,19.76h-.15c-6.79,3.24-13.9,6.02-21.15,8.34-2.47.77-4.94,1.39-7.41,2.16-1.85.46-3.71,1.24-5.71,1.7-2.47.77-4.94,1.24-7.57,1.85-.31,0-.46.15-.77.15-12.97,2.78-26.55,4.17-40.6,4.32h-1.54c-5.1,0-10.19-.15-15.28-.62-2.78-.15-5.4-.46-8.03-.77-.31-.15-.77-.15-1.08-.15-.77-.15-1.39-.15-2.16-.31-16.06-2.16-31.03-6.18-44.93-11.42-4.01-1.54-7.87-3.09-11.58-4.79-2.78-1.24-5.4-2.63-8.18-4.01-4.94-2.47-9.88-5.1-14.51-7.87-10.34-6.33-19.92-13.28-28.56-20.53-2.32-1.85-4.63-3.86-6.79-5.87-1.24-1.08-2.47-2.16-3.71-3.24-11.73-10.81-21.46-21.77-29.18-31.5-1.24-1.54-2.32-2.93-3.55-4.48-6.33-8.18-10.96-15.28-13.9-20.07l-.15-.15c-.15-.31-.31-.46-.31-.77-.46-.46-.77-1.08-1.08-1.54-1.08-1.85-1.85-3.24-2.16-3.71v5.71c.11,20.94,4,41.02,10.85,59.54.35.95.7,1.9,1.06,2.85,2.29,5.87,4.82,11.61,7.7,17.12,1.23,2.32,2.62,4.63,3.86,6.95,1.39,2.32,2.78,4.48,4.17,6.79,1.54,2.16,2.93,4.32,4.48,6.48,1.39,2.16,3.09,4.17,4.79,6.18,1.39,1.7,2.62,3.4,4.01,4.94.46.62.93,1.08,1.54,1.7,1.54,1.7,3.09,3.4,4.79,4.94,2.78,2.93,5.71,5.71,8.65,8.18,3.71,3.4,7.72,6.64,11.89,9.42,1.85,1.24,3.71,2.47,5.56,3.71,2.62,1.7,5.25,3.24,8.03,4.79,8.49,4.63,17.6,8.34,27.02,11.12,2.01.62,4.01,1.08,6.18,1.39,1.39.46,2.93.93,4.63,1.08,1.39.31,2.78.62,4.17.77,2.16.46,4.48.77,6.64.93,4.63.46,9.26.77,13.9.77,21.92,0,41.84-4.01,59.9-11.27l76.89,98.97c-41.07,22.08-88,34.58-136.79,34.58-4.48,0-8.95-.15-13.28-.31-16.98-.77-33.35-2.78-49.1-6.18-4.48-1.08-8.8-2.01-13.12-3.24-8.49-2.16-16.83-4.79-25.01-7.87-14.82-5.4-29.03-12.2-42.3-19.92-1.24-.62-2.32-1.39-3.55-2.01-2.47-1.54-4.94-3.24-7.41-4.79-5.09-3.24-10.19-6.79-14.98-10.5-1.7-1.24-3.24-2.47-4.79-3.71-4.01-3.09-7.72-6.18-11.42-9.57-.77-.46-1.39-1.08-2.01-1.7-.46-.62-1.08-1.08-1.54-1.54-1.85-1.54-3.55-3.09-5.09-4.63-3.86-3.71-7.41-7.41-10.96-11.27-1.54-1.7-3.09-3.4-4.63-5.09q-.15-.15-.31-.31v-.15c-.31-.46-.77-.77-1.08-1.24-2.01-2.47-4.01-4.94-6.02-7.26-2.32-2.93-4.63-5.87-6.79-8.8-2.32-3.24-4.63-6.48-6.95-9.88-2.01-2.78-3.71-5.87-5.56-8.65-2.47-3.86-4.79-8.03-7.1-12.04-3.09-6.02-6.33-12.2-9.26-18.53-2.78-6.18-5.4-12.66-7.87-19.14-12.2-32.42-18.68-67.78-18.68-104.68v-84.91h134.63l.15.15c.15.15.31.46.46.77.31.15.46.46.77.93.31.31.77.93,1.08,1.39.93,1.08,1.85,2.32,3.09,3.86.62.77,1.39,1.54,2.01,2.47q.15,0,0,.15h.15l.46.46c.46.62,1.08,1.23,1.7,2.01,2.47,2.78,5.4,6.02,8.8,9.42,1.08,1.08,2.16,2.16,3.4,3.24v.15c1.24,1.24,2.47,2.32,3.71,3.55,1.23,1.23,2.62,2.32,4.01,3.4v.15c1.39,1.24,2.78,2.32,4.17,3.55v.15h.15c2.62,2.16,5.4,4.48,8.34,6.64.31.15.62.46.93.62v.15c.31.15.62.31.93.62,1.24.93,2.47,1.85,3.71,2.62,1.08.93,2.32,1.7,3.71,2.47,2.93,2.01,6.02,4.01,9.26,6.02.46.31.77.62,1.24.77,6.18,3.55,12.66,6.95,19.45,10.03,1.7.77,3.55,1.54,5.4,2.32,1.85.77,3.71,1.54,5.56,2.16,3.4,1.23,6.79,2.32,10.19,3.24,3.55,1.08,7.1,2.01,10.81,2.78,3.55.77,7.26,1.54,11.12,2.01h.15c3.71.62,7.57.93,11.42,1.24,2.78.15,5.56.31,8.34.31h4.32c3.4-.15,6.64-.31,10.04-.62,1.39-.15,2.93-.31,4.32-.46,1.7-.31,3.4-.46,5.1-.77,5.87-.93,11.89-2.32,17.6-4.17,3.71-1.08,7.41-2.32,10.96-3.86,3.55-1.39,7.1-2.93,10.5-4.79,4.63-2.32,8.95-4.79,13.12-7.57,2.32-1.54,4.63-3.24,6.95-4.94,2.32-1.7,4.63-3.55,6.95-5.4,2.01-1.7,4.01-3.55,6.02-5.71,1.39-1.23,2.93-2.78,4.32-4.32,4.94-5.1,9.42-10.65,13.59-16.83.93-1.24,1.85-2.32,2.47-3.55.46-.62.93-1.24,1.08-1.85,1.39-1.85,2.62-3.86,3.71-6.02.62-.77,1.08-1.54,1.39-2.32.15-.46.46-.77.62-1.23v-.15c1.24-2.16,2.32-4.32,3.4-6.64,1.08-2.16,2.16-4.32,2.93-6.64.62-1.39,1.24-2.93,1.7-4.32.62-1.08,1.08-2.16,1.39-3.4,3.09-8.49,5.56-17.6,7.57-27.33.46-2.32.93-4.63,1.39-7.1.31-2.47.77-4.79.93-7.26.15-.62.31-1.24.31-2.01.62-3.24.93-6.48,1.08-9.88.31-3.24.62-6.64.62-10.03.15-1.7.31-3.4.15-5.1.15-1.7.15-3.55.15-5.25,0-5.25-.15-10.34-.62-15.13-.15-3.71-.46-7.41-.93-10.96,0-.77,0-1.39-.15-2.16-.15-1.24-.31-2.47-.46-3.71-.31-3.55-.77-6.95-1.54-10.34-.31-1.08-.46-2.32-.77-3.4,0-.46,0-.93-.15-1.24-.31-2.32-.77-4.63-1.54-6.64,0-.46-.15-.77-.31-1.24-.15-.93-.31-1.7-.62-2.62,0-.15,0-.31-.15-.46-.31-1.85-.77-3.71-1.54-5.56-.62-2.16-1.24-4.17-2.01-6.18-.46-1.85-1.08-3.71-1.85-5.4-.46-1.24-1.08-2.62-1.7-3.86-1.23-2.78-2.32-5.71-3.71-8.34-.62-1.24-1.23-2.47-1.85-3.71-1.08-2.01-2.16-4.01-3.4-5.87-.31-.62-.62-1.24-1.08-1.85v-.15c-.15-.31-.46-.62-.62-.93-4.32-7.1-9.26-13.28-14.51-18.68-2.62-2.78-5.4-5.4-8.18-7.57-2.32-2.01-4.63-3.86-7.1-5.4-1.08-.77-2.16-1.54-3.4-2.16-2.32-1.54-4.63-2.78-7.1-4.01-2.78-1.39-5.71-2.78-8.65-3.86-2.32-.93-4.79-1.7-7.1-2.32-.15,0-.46-.15-.62-.15-2.01-.77-4.17-1.23-6.33-1.54-.15-.15-.46-.15-.62-.15-.62-.15-1.23-.31-1.85-.31-.15,0-.46-.15-.62-.15-2.16-.31-4.32-.62-6.48-.77h-.15c-2.62-.31-5.25-.46-7.87-.46-3.4,0-6.79.15-10.19.62h-.31c-1.85.15-3.71.46-5.56.77-1.7.31-3.55.62-5.25,1.08-1.7.31-3.4.77-5.1,1.39-1.85.46-3.71,1.08-5.4,2.01-2.08.71-4,1.9-6.03,2.79-8.33,4.17-25.72,14.4-34.26,24.85-1.39,1.7-2.93,3.4-4.17,5.1-10.19,12.04-18.53,26.71-24.86,42.77-9.11,23.31-13.9,49.87-13.12,77.35h-135.55l-71.64-281.45h135.4l42.77,166.59v.15l.15.15v-.46c.15-.15.15-.46.15-.77v-.15c.46-2.16,1.24-6.49,2.47-12.51.31-1.54.62-2.93,1.08-4.63.46-2.01,1.08-4.01,1.54-6.18.62-2.16,1.39-4.48,2.01-6.79.31-1.08.62-2.16.93-3.24.77-2.47,1.7-5.25,2.62-7.87.31-1.08.62-2.32,1.08-3.4.31-1.08.77-2.32,1.24-3.55,0-.31.15-.62.31-.93.77-2.16,1.54-4.32,2.47-6.64v-.15c.93-2.16,1.85-4.48,2.78-6.79,0-.15,0-.31.15-.46,2.01-4.79,4.17-9.57,6.48-14.51l.15-.15c2.47-5.09,5.25-10.34,8.18-15.44,1.39-2.62,2.93-5.25,4.63-7.72,1.54-2.47,3.09-5.09,4.94-7.57,1.7-2.62,3.55-5.1,5.4-7.57,1.85-2.47,3.86-4.94,5.87-7.26,1.39-1.7,2.78-3.24,4.32-4.94.93-1.08,2.01-2.16,3.09-3.24,1.7-2.01,3.4-3.71,5.25-5.4,1.39-1.39,2.93-2.78,4.48-4.17,1.24-1.24,2.47-2.32,3.86-3.4,1.85-1.54,3.71-3.09,5.71-4.63.31-.31.77-.62,1.24-.93,2.47-1.7,4.94-3.4,7.41-5.1,2.32-1.54,4.79-2.93,7.26-4.32.93-.62,1.85-1.08,2.78-1.54,2.32-1.39,4.79-2.62,7.41-3.71,3.09-1.39,6.18-2.62,9.42-3.86,6.49-2.32,13.43-4.32,20.53-5.71,3.71-.77,7.41-1.39,11.12-1.85,1.39-.15,2.78-.46,4.01-.62,1.39-.31,2.78-.46,4.17-.31.31-.15.62-.15.93-.15,3.24-.31,6.48-.62,9.73-.77,3.24-.15,6.48-.31,9.73-.31,8.03,0,16.06.46,23.62,1.7h.15l.15-.15h.15q.15,0,.31.15c7.87,1.08,15.59,2.62,23.16,4.63,2.78.77,5.4,1.7,8.18,2.62.93.31,1.7.62,2.62.93.15,0,.31,0,.46.15.46.15,1.08.46,1.7.62,1.54.62,3.09,1.24,4.63,1.85,1.54.62,2.93,1.24,4.48,1.85,3.24,1.39,6.33,2.78,9.42,4.32.31.15.46.31.77.31,3.71,2.01,7.41,4.01,11.12,6.18,3.86,2.32,7.57,4.63,11.12,7.1.15.15.15.31.31.31,2.16,1.39,4.17,2.93,6.18,4.48q.15.15.31.31c2.01,1.54,4.01,3.09,6.02,4.79l.15.15c2.01,1.7,4.01,3.24,6.02,5.25.31.15.46.46.77.62,1.54,1.39,3.09,2.78,4.63,4.32q.15.15.31.31c1.7,1.54,3.4,3.24,5.09,5.09,1.54,1.7,3.24,3.4,4.79,5.1,4.01,4.32,7.72,8.8,11.42,13.43,5.71,7.26,11.12,14.98,16.06,23.16.62.93,1.24,1.85,1.7,2.78,2.62,4.17,5.1,8.49,7.41,12.81,1.54,2.62,2.93,5.4,4.17,8.18.93,1.54,1.7,3.09,2.47,4.79,5.87,12.51,11.12,25.47,15.59,38.91.77,2.63,1.7,5.25,2.47,8.03.77,2.62,1.7,5.4,2.32,8.03,1.7,5.71,3.09,11.42,4.32,17.14.31,1.39.62,2.93.93,4.32,1.7,7.87,3.24,15.9,4.32,24.08.31,1.7.46,3.24.77,4.94,0,.93.15,1.7.31,2.63.15,1.08.31,2.32.31,3.4.15,1.24.31,2.62.46,3.86.31,2.16.46,4.48.62,6.79.31,3.09.62,6.02.77,9.11,0,.77.15,1.39.15,2.16.46,7.1.62,14.2.62,21.31Z"/>
  <rect class="cls-2" width="134.22" height="638.76"/>
  <path class="cls-2" d="M323.03,194.89v443.83h-134.17V195.13c0-4.3,4.67-7.21,8.38-5.03,17.11,10.09,37.03,15.86,58.32,15.86s41.78-5.79,59.07-16.09c3.7-2.21,8.4.71,8.4,5.02Z"/>
  <path class="cls-1" d="M255.69,0c-49.26,0-89.14,39.88-89.14,89.14s39.88,89.65,89.14,89.65,89.65-40.49,89.65-89.65S305.46,0,255.69,0Z"/>
  <path class="cls-2" d="M745.03,76.96c-164.2-5.71-233.15,349.32-233.15,349.32V89.4h-134.22v549.32h134.22s93.83-424.99,190.21-417.14c45.59,3.57,53.85,53.85,54.36,132.69v284.45h134.22v-285.57c-1.02-130.55-37.33-272.52-145.64-276.19Z"/>
  <path class="cls-2" d="M2639.47,638.41l-135.25.46-43.07-167.36s-22.23,152.85-137.25,175.7c-13.74,2.78-27.02,4.01-39.68,4.01-70.87,0-126.6-39.99-163.35-98.35-6.02-9.57-11.58-19.61-16.52-29.95-22.08-46.32-33.97-100.51-33.97-154.55s11.89-104.37,33.97-150.84c22.54-47.09,55.89-87.54,98.5-112.71,29.64-17.75,63.61-27.94,101.74-28.25h1.7c125.98,0,191.14,114.71,195.15,121.97l.15.31v-109.46h134.78v189.28h-134.78s-54.5-78.74-144.66-79.82h-.93c-41.99,0-83.06,18.84-110.39,56.04-20.38,27.64-33.19,65.46-33.19,113.48,0,15.28,1.24,29.49,3.71,42.46,12.2,68.7,54.81,104.83,101.9,104.83,3.4,0,6.95-.31,10.5-.62,61.6-6.33,105.6-78.28,103.44-158.1h135.86l71.64,281.45Z"/>
  <path class="cls-2" d="M1665.16,638.65c164.2,5.71,233.15-349.32,233.15-349.32v336.87h134.22V76.89h-134.22s-93.83,424.99-190.21,417.14c-45.59-3.57-53.85-53.85-54.36-132.69V76.89h-134.22v285.57c1.02,130.55,37.33,272.52,145.64,276.19Z"/>
</svg>